<?xml version="1.0" standalone="no"?>
<!DOCTYPE svg PUBLIC "-//W3C//DTD SVG 20010904//EN"
 "http://www.w3.org/TR/2001/REC-SVG-20010904/DTD/svg10.dtd">
<svg version="1.0" xmlns="http://www.w3.org/2000/svg"
 width="300.000000pt" height="300.000000pt" viewBox="0 0 300.000000 300.000000"
 preserveAspectRatio="xMidYMid meet">
<metadata>
Created by potrace 1.11, written by Peter Selinger 2001-2013
</metadata>
<g transform="translate(0.000000,300.000000) scale(0.100000,-0.100000)"
fill="#000000" stroke="none">
<path d="M42 1495 l0 -1476 779 1 c428 1 781 5 783 8 2 4 34 7 70 7 36 0 66 2
66 5 0 3 15 7 33 8 34 3 72 9 72 12 0 2 58 11 93 13 12 1 22 5 22 8 0 3 6 6
13 7 20 1 50 9 82 23 17 6 39 12 50 13 11 0 26 6 33 13 7 7 20 13 28 13 9 0
25 5 37 12 12 7 28 13 36 14 8 2 17 8 21 14 4 7 9 11 11 10 8 -3 45 14 72 32
15 11 27 16 27 13 0 -4 18 7 39 24 21 17 42 31 46 31 3 0 12 6 19 13 7 6 30
26 51 42 61 48 214 215 197 215 -4 0 -2 4 3 8 12 8 43 54 41 62 0 3 15 28 34
55 19 28 34 51 33 52 -2 2 7 24 18 50 12 27 22 53 23 58 3 9 7 22 23 63 3 9 7
20 8 25 2 4 4 8 5 10 1 1 3 14 4 28 2 14 6 31 11 38 4 8 9 25 11 40 9 71 17
107 26 119 7 8 7 12 -1 12 -7 0 -9 5 -5 11 13 21 17 95 18 284 1 201 -4 281
-18 304 -7 10 -5 12 5 6 11 -7 12 -6 2 6 -7 8 -12 24 -12 34 -1 19 -7 65 -11
75 -1 3 -3 10 -5 15 -1 6 -3 13 -5 18 -1 4 -3 15 -5 25 -2 23 -16 75 -24 87
-3 6 -7 19 -8 29 -2 11 -8 25 -14 33 -6 7 -8 13 -4 13 4 0 2 6 -4 13 -6 8 -8
17 -4 20 3 4 1 7 -6 7 -7 0 -10 4 -6 9 3 5 1 12 -5 16 -6 4 -8 11 -5 16 4 5 3
9 -2 9 -4 0 -16 20 -26 45 -11 25 -23 45 -28 45 -5 0 -8 3 -7 8 7 23 -118 190
-197 263 -67 62 -93 82 -170 133 -73 48 -183 107 -202 108 -4 0 -17 5 -28 11
-11 6 -26 12 -34 13 -8 2 -17 6 -20 11 -3 4 -15 9 -26 10 -11 1 -46 11 -79 22
-32 12 -62 18 -66 16 -5 -3 -11 -1 -15 5 -4 6 -11 8 -16 5 -5 -4 -15 -3 -21 2
-13 8 -18 9 -80 18 -21 3 -57 8 -80 12 -24 4 -62 7 -85 7 -24 0 -43 4 -43 8 0
11 -23 6 -32 -7 -5 -6 -8 -5 -8 2 0 10 -169 13 -769 13 l-769 0 0 -1475z m744
875 c5 1 14 6 21 11 7 6 13 6 17 0 7 -10 25 -9 44 2 6 5 12 5 12 0 0 -4 20 -8
45 -8 25 0 45 2 45 5 0 3 9 6 20 6 11 0 20 -3 20 -7 0 -9 20 -6 37 4 6 4 14 3
17 -2 7 -10 25 -9 44 2 7 5 12 3 12 -3 0 -6 4 -9 9 -6 9 6 64 8 142 5 25 -1
51 1 57 5 7 4 12 4 12 -1 0 -10 52 -9 68 1 7 4 12 4 12 -1 0 -4 36 -9 79 -10
44 -1 90 -7 102 -13 16 -9 20 -9 14 0 -6 9 -3 9 11 2 11 -6 24 -10 29 -10 26
-1 125 -27 125 -33 0 -4 12 -10 28 -15 15 -4 29 -8 32 -9 23 -7 60 -30 60 -37
0 -5 4 -7 9 -3 5 3 16 -2 24 -10 9 -8 18 -15 21 -15 7 0 41 -29 96 -80 34 -32
128 -163 131 -182 1 -4 2 -13 3 -18 0 -6 7 -15 15 -19 7 -5 11 -13 7 -19 -3
-6 -2 -13 4 -17 6 -4 8 -11 5 -16 -4 -5 -1 -9 5 -9 7 0 10 -6 7 -14 -3 -8 -3
-17 1 -21 4 -4 8 -11 8 -16 1 -5 2 -10 4 -11 5 -7 23 -113 24 -140 0 -10 3
-18 6 -18 3 0 5 -27 4 -60 -1 -33 3 -60 8 -60 5 0 6 -6 1 -12 -4 -7 -8 -42 -9
-78 0 -36 -5 -92 -9 -125 -4 -33 -8 -66 -8 -72 0 -7 -3 -13 -7 -13 -4 0 -7 -8
-6 -17 1 -22 -34 -134 -46 -147 -4 -6 -8 -18 -8 -28 0 -10 -4 -18 -10 -18 -5
0 -10 -5 -10 -11 0 -19 -69 -115 -120 -168 -47 -47 -130 -111 -145 -111 -4 0
-20 -9 -36 -21 -16 -11 -29 -17 -29 -13 0 3 -6 2 -12 -3 -19 -15 -98 -40 -140
-45 -10 -1 -18 -5 -18 -8 0 -4 -6 -7 -12 -7 -7 -1 -33 -4 -58 -8 -25 -3 -75
-7 -112 -8 -38 -1 -68 -6 -68 -12 0 -7 -3 -7 -8 0 -7 10 -162 15 -162 5 0 -3
-27 -3 -61 0 -33 3 -63 2 -65 -2 -3 -5 -10 -6 -15 -2 -15 9 -59 12 -59 4 0 -4
-18 -4 -39 0 -25 4 -44 3 -50 -3 -8 -8 -11 -7 -11 4 0 12 -2 12 -10 -1 -5 -8
-10 -10 -10 -5 0 6 -30 9 -76 7 -42 -2 -86 -1 -98 2 -22 5 -28 29 -14 52 4 5
3 16 -1 22 -4 7 -5 33 -1 57 4 25 3 45 -1 45 -9 0 -7 20 4 37 5 8 3 13 -3 13
-8 0 -7 6 1 21 8 15 8 24 1 28 -7 4 -7 12 -2 20 4 8 5 24 0 36 -5 12 -5 28 0
35 5 7 4 24 -1 37 -5 12 -5 23 -1 23 8 0 6 144 -2 166 -3 9 -1 12 4 9 6 -3 10
-2 10 4 0 5 -5 13 -10 16 -6 4 -7 11 -4 17 11 17 12 78 2 84 -5 3 -5 11 1 17
14 18 14 29 -1 38 -9 6 -10 11 -2 17 11 8 12 51 0 70 -4 7 -4 12 1 12 4 0 8
199 8 443 0 411 4 481 26 446 3 -6 10 -10 15 -9z"/>
</g>
</svg>
